<svg width="12" height="14" viewBox="0 0 12 14" fill="none" xmlns="http://www.w3.org/2000/svg">
<path d="M7.33334 1V3.66667C7.33334 3.84348 7.40358 4.01305 7.52861 4.13807C7.65363 4.2631 7.8232 4.33333 8.00001 4.33333H10.6667" stroke="#96A09B" stroke-width="1.5" stroke-linecap="round" stroke-linejoin="round"/>
<path d="M4.00001 7.66667H8.00001M9.33334 13H2.66668C2.31305 13 1.97392 12.8595 1.72387 12.6095C1.47382 12.3594 1.33334 12.0203 1.33334 11.6667V2.33333C1.33334 1.97971 1.47382 1.64057 1.72387 1.39052C1.97392 1.14048 2.31305 1 2.66668 1H7.33334L10.6667 4.33333V11.6667C10.6667 12.0203 10.5262 12.3594 10.2762 12.6095C10.0261 12.8595 9.68697 13 9.33334 13ZM4.00001 10.3333H8.00001H4.00001Z" stroke="#96A09B" stroke-width="1.5" stroke-linecap="round" stroke-linejoin="round"/>
</svg>
