<svg width="14" height="14" viewBox="0 0 14 14" fill="none" xmlns="http://www.w3.org/2000/svg">
<path d="M5.00001 6.33333C6.47277 6.33333 7.66668 5.13943 7.66668 3.66667C7.66668 2.19391 6.47277 1 5.00001 1C3.52725 1 2.33334 2.19391 2.33334 3.66667C2.33334 5.13943 3.52725 6.33333 5.00001 6.33333Z" stroke="#96A09B" stroke-width="1.5" stroke-linecap="round" stroke-linejoin="round"/>
<path d="M9.66667 1.08667C10.2403 1.23354 10.7487 1.56714 11.1118 2.03488C11.4748 2.50262 11.6719 3.07789 11.6719 3.67C11.6719 4.26212 11.4748 4.83739 11.1118 5.30513C10.7487 5.77287 10.2403 6.10647 9.66667 6.25334M13 13V11.6667C12.9966 11.0781 12.7986 10.5072 12.4368 10.0429C12.0751 9.57867 11.5699 9.24714 11 9.1M1 13V11.6667C1 10.9594 1.28095 10.2811 1.78105 9.78105C2.28115 9.28095 2.95942 9 3.66667 9H6.33333C7.04058 9 7.71885 9.28095 8.21895 9.78105C8.71905 10.2811 9 10.9594 9 11.6667V13H1Z" stroke="#96A09B" stroke-width="1.5" stroke-linecap="round" stroke-linejoin="round"/>
</svg>
